# xmcd CD database file
#
# Track frame offsets:
#	150
#	17447
#	33746
#	50057
#	63331
#	80301
#	94949
#	112338
#	127761
#	145114
#	165463
#	180630
#	199220
#	215846
#	233229
#	249584
#	266787
#	284250
#	301254
#	316744
#	331077
#
# Disc length: 4637 seconds
#
# Revision: 0
# Processed by: cddbd v1.5.1PL0 Copyright (c) Steve Scherf et al.
# Submitted via: CDex 1.51
#
DISCID=2e121b15
DTITLE=Various Artist - Promo Only Canada Mainstream Radio April 2005
DYEAR=2005
DGENRE=Country
TTITLE0=Jennifer Lopez Feat. Fat Joe - Hold You Down
TTITLE1=Shawn Desman - Lets Go
TTITLE2=Nelly - N Dey Say
TTITLE3=Avril Lavigne - He Wasn't
TTITLE4=Frankie J Feat. Baby Bash - Obsession (No Es Amor)
TTITLE5=Kayle - On Your Feet
TTITLE6=Twista Feat. Faith Evans - Hope  (Radio Edit)
TTITLE7=50 Cent - Candy Shop
TTITLE8=Jem - 24 (Radio Remix)
TTITLE9=Ludacris - Get Back
TTITLE10=Jimmy Eat World - Work
TTITLE11=Anna Nalick - Breathe (2 AM)
TTITLE12=Kimberly Lock - Coulda Been
TTITLE13=Nivea Feat. Lil Jon and Youngbloodz - Okay (Radio Edit)
TTITLE14=T.I. - Bring Em Out
TTITLE15=Natalie - Goin' Crazy
TTITLE16=Mario - How Could You (Clean)
TTITLE17=Fan 3 - Broken Home
TTITLE18=Hipjoint - Sunshine
TTITLE19=Lifehouse - You And Me (Album Version)
TTITLE20=Michael Bublé - Home
EXTD=YEAR: 2005
EXTT0=
EXTT1=
EXTT2=
EXTT3=
EXTT4=
EXTT5=
EXTT6=
EXTT7=
EXTT8=
EXTT9=
EXTT10=
EXTT11=
EXTT12=
EXTT13=
EXTT14=
EXTT15=
EXTT16=
EXTT17=
EXTT18=
EXTT19=
EXTT20=
PLAYORDER=
